<?xml version="1.0" encoding="UTF-8"?>
<svg xmlns="http://www.w3.org/2000/svg" xmlns:xlink="http://www.w3.org/1999/xlink" width="288pt" height="75pt" viewBox="0 0 288 75">
<defs>
<g>
<g id="glyph-0-0">
<path d="M 0.3125 -2.0625 L 2.28125 -2.0625 L 2.28125 -1.5625 L 0.3125 -1.5625 Z M 0.3125 -2.0625 "/>
</g>
<g id="glyph-0-1">
<path d="M 0.234375 -0.09375 C 1.191406 -1.082031 1.835938 -1.804688 2.171875 -2.265625 C 2.515625 -2.734375 2.6875 -3.1875 2.6875 -3.625 C 2.6875 -4.007812 2.582031 -4.300781 2.375 -4.5 C 2.164062 -4.707031 1.921875 -4.8125 1.640625 -4.8125 C 1.273438 -4.8125 0.984375 -4.679688 0.765625 -4.421875 C 0.640625 -4.273438 0.523438 -4.054688 0.421875 -3.765625 L 0.25 -3.796875 C 0.375 -4.390625 0.59375 -4.800781 0.90625 -5.03125 C 1.21875 -5.269531 1.550781 -5.390625 1.90625 -5.390625 C 2.351562 -5.390625 2.710938 -5.25 2.984375 -4.96875 C 3.253906 -4.695312 3.390625 -4.359375 3.390625 -3.953125 C 3.390625 -3.523438 3.238281 -3.113281 2.9375 -2.71875 C 2.644531 -2.320312 2.007812 -1.617188 1.03125 -0.609375 L 2.828125 -0.609375 C 3.078125 -0.609375 3.25 -0.640625 3.34375 -0.703125 C 3.445312 -0.765625 3.5625 -0.910156 3.6875 -1.140625 L 3.796875 -1.09375 L 3.359375 0 L 0.234375 0 Z M 0.234375 -0.09375 "/>
</g>
<g id="glyph-0-2">
<path d="M 2.375 -5.375 C 2.382812 -5.351562 2.390625 -5.335938 2.390625 -5.328125 C 2.390625 -5.328125 2.390625 -5.316406 2.390625 -5.296875 L 2.390625 -0.59375 C 2.390625 -0.394531 2.441406 -0.265625 2.546875 -0.203125 C 2.648438 -0.148438 2.847656 -0.117188 3.140625 -0.109375 L 3.140625 0 L 0.9375 0 L 0.9375 -0.125 C 1.257812 -0.132812 1.46875 -0.175781 1.5625 -0.25 C 1.65625 -0.320312 1.703125 -0.472656 1.703125 -0.703125 L 1.703125 -4.328125 C 1.703125 -4.453125 1.6875 -4.546875 1.65625 -4.609375 C 1.625 -4.671875 1.554688 -4.703125 1.453125 -4.703125 C 1.390625 -4.703125 1.300781 -4.679688 1.1875 -4.640625 C 1.082031 -4.609375 0.984375 -4.570312 0.890625 -4.53125 L 0.890625 -4.640625 L 2.328125 -5.375 Z M 2.375 -5.375 "/>
</g>
<g id="glyph-0-3">
</g>
<g id="glyph-0-4">
<path d="M 1.921875 -0.140625 C 2.296875 -0.140625 2.554688 -0.347656 2.703125 -0.765625 C 2.847656 -1.191406 2.921875 -1.800781 2.921875 -2.59375 C 2.921875 -3.226562 2.878906 -3.734375 2.796875 -4.109375 C 2.628906 -4.816406 2.328125 -5.171875 1.890625 -5.171875 C 1.441406 -5.171875 1.132812 -4.804688 0.96875 -4.078125 C 0.882812 -3.691406 0.84375 -3.1875 0.84375 -2.5625 C 0.84375 -1.96875 0.890625 -1.492188 0.984375 -1.140625 C 1.148438 -0.472656 1.460938 -0.140625 1.921875 -0.140625 Z M 1.90625 -5.375 C 2.5 -5.375 2.960938 -5.0625 3.296875 -4.4375 C 3.554688 -3.925781 3.6875 -3.34375 3.6875 -2.6875 C 3.6875 -2.164062 3.609375 -1.675781 3.453125 -1.21875 C 3.148438 -0.351562 2.625 0.078125 1.875 0.078125 C 1.351562 0.078125 0.929688 -0.15625 0.609375 -0.625 C 0.253906 -1.125 0.078125 -1.800781 0.078125 -2.65625 C 0.078125 -3.320312 0.191406 -3.898438 0.421875 -4.390625 C 0.742188 -5.046875 1.238281 -5.375 1.90625 -5.375 Z M 1.90625 -5.375 "/>
</g>
<g id="glyph-0-5">
<path d="M 2.328125 -4.5625 L 0.421875 -1.859375 L 2.328125 -1.859375 Z M 2.59375 -5.375 L 2.96875 -5.375 L 2.96875 -1.859375 L 3.78125 -1.859375 L 3.78125 -1.328125 L 2.96875 -1.328125 L 2.96875 0 L 2.34375 0 L 2.34375 -1.328125 L 0.09375 -1.328125 L 0.09375 -1.859375 Z M 2.59375 -5.375 "/>
</g>
<g id="glyph-0-6">
<path d="M 3.75 -1.78125 C 3.75 -1.300781 3.59375 -0.867188 3.28125 -0.484375 C 2.976562 -0.0976562 2.582031 0.09375 2.09375 0.09375 C 1.632812 0.09375 1.21875 -0.117188 0.84375 -0.546875 C 0.46875 -0.984375 0.28125 -1.5625 0.28125 -2.28125 C 0.28125 -3.195312 0.644531 -3.984375 1.375 -4.640625 C 2.019531 -5.191406 2.75 -5.46875 3.5625 -5.46875 L 3.578125 -5.34375 C 3.253906 -5.28125 2.972656 -5.195312 2.734375 -5.09375 C 2.503906 -4.988281 2.296875 -4.847656 2.109375 -4.671875 C 1.921875 -4.484375 1.742188 -4.242188 1.578125 -3.953125 C 1.410156 -3.660156 1.296875 -3.375 1.234375 -3.09375 C 1.390625 -3.1875 1.53125 -3.257812 1.65625 -3.3125 C 1.863281 -3.394531 2.070312 -3.4375 2.28125 -3.4375 C 2.695312 -3.4375 3.046875 -3.289062 3.328125 -3 C 3.609375 -2.71875 3.75 -2.3125 3.75 -1.78125 Z M 3.03125 -1.484375 C 3.03125 -1.828125 2.972656 -2.132812 2.859375 -2.40625 C 2.679688 -2.851562 2.375 -3.078125 1.9375 -3.078125 C 1.53125 -3.078125 1.257812 -2.957031 1.125 -2.71875 C 1.050781 -2.570312 1.015625 -2.335938 1.015625 -2.015625 C 1.015625 -1.585938 1.101562 -1.171875 1.28125 -0.765625 C 1.46875 -0.359375 1.753906 -0.15625 2.140625 -0.15625 C 2.453125 -0.15625 2.675781 -0.285156 2.8125 -0.546875 C 2.957031 -0.816406 3.03125 -1.128906 3.03125 -1.484375 Z M 3.03125 -1.484375 "/>
</g>
<g id="glyph-0-7">
<path d="M 2.015625 -0.140625 C 2.316406 -0.140625 2.539062 -0.222656 2.6875 -0.390625 C 2.84375 -0.554688 2.921875 -0.765625 2.921875 -1.015625 C 2.921875 -1.296875 2.835938 -1.523438 2.671875 -1.703125 C 2.515625 -1.878906 2.179688 -2.144531 1.671875 -2.5 C 1.453125 -2.351562 1.289062 -2.164062 1.1875 -1.9375 C 1.082031 -1.71875 1.03125 -1.503906 1.03125 -1.296875 C 1.03125 -0.941406 1.125 -0.660156 1.3125 -0.453125 C 1.5 -0.242188 1.734375 -0.140625 2.015625 -0.140625 Z M 2.0625 -3.125 C 2.3125 -3.289062 2.484375 -3.429688 2.578125 -3.546875 C 2.734375 -3.753906 2.8125 -4 2.8125 -4.28125 C 2.8125 -4.53125 2.734375 -4.738281 2.578125 -4.90625 C 2.429688 -5.082031 2.203125 -5.171875 1.890625 -5.171875 C 1.648438 -5.171875 1.453125 -5.09375 1.296875 -4.9375 C 1.140625 -4.789062 1.0625 -4.609375 1.0625 -4.390625 C 1.0625 -4.148438 1.148438 -3.921875 1.328125 -3.703125 C 1.515625 -3.492188 1.757812 -3.300781 2.0625 -3.125 Z M 1.46875 -2.671875 C 1.125 -2.941406 0.890625 -3.160156 0.765625 -3.328125 C 0.566406 -3.578125 0.46875 -3.851562 0.46875 -4.15625 C 0.46875 -4.5 0.609375 -4.789062 0.890625 -5.03125 C 1.179688 -5.269531 1.554688 -5.390625 2.015625 -5.390625 C 2.429688 -5.390625 2.757812 -5.273438 3 -5.046875 C 3.25 -4.816406 3.375 -4.554688 3.375 -4.265625 C 3.375 -3.953125 3.25 -3.675781 3 -3.4375 C 2.851562 -3.300781 2.617188 -3.144531 2.296875 -2.96875 C 2.734375 -2.632812 3.046875 -2.34375 3.234375 -2.09375 C 3.429688 -1.851562 3.53125 -1.570312 3.53125 -1.25 C 3.53125 -0.875 3.390625 -0.554688 3.109375 -0.296875 C 2.828125 -0.0351562 2.445312 0.09375 1.96875 0.09375 C 1.550781 0.09375 1.1875 -0.0234375 0.875 -0.265625 C 0.570312 -0.503906 0.421875 -0.816406 0.421875 -1.203125 C 0.421875 -1.535156 0.53125 -1.828125 0.75 -2.078125 C 0.882812 -2.242188 1.125 -2.441406 1.46875 -2.671875 Z M 1.46875 -2.671875 "/>
</g>
</g>
</defs>
<path fill="none" stroke-width="0.125" stroke-linecap="butt" stroke-linejoin="miter" stroke="rgb(0%, 0%, 0%)" stroke-opacity="1" stroke-dasharray="0.5 1" stroke-miterlimit="10" d="M 23.199219 21 L 274.398438 21 " transform="matrix(1, 0, 0, -1, 0, 75)"/>
<path fill="none" stroke-width="0.5" stroke-linecap="butt" stroke-linejoin="miter" stroke="rgb(0%, 0%, 0%)" stroke-opacity="1" stroke-miterlimit="10" d="M 23.199219 21 L 26.351562 21 M 274.398438 21 L 271.25 21 " transform="matrix(1, 0, 0, -1, 0, 75)"/>
<g fill="rgb(0%, 0%, 0%)" fill-opacity="1">
<use xlink:href="#glyph-0-0" x="11.7359" y="56.665"/>
<use xlink:href="#glyph-0-1" x="14.3999" y="56.665"/>
</g>
<path fill="none" stroke-width="0.125" stroke-linecap="butt" stroke-linejoin="miter" stroke="rgb(0%, 0%, 0%)" stroke-opacity="1" stroke-dasharray="0.5 1" stroke-miterlimit="10" d="M 23.199219 31 L 274.398438 31 " transform="matrix(1, 0, 0, -1, 0, 75)"/>
<path fill="none" stroke-width="0.5" stroke-linecap="butt" stroke-linejoin="miter" stroke="rgb(0%, 0%, 0%)" stroke-opacity="1" stroke-miterlimit="10" d="M 23.199219 31 L 26.351562 31 M 274.398438 31 L 271.25 31 " transform="matrix(1, 0, 0, -1, 0, 75)"/>
<g fill="rgb(0%, 0%, 0%)" fill-opacity="1">
<use xlink:href="#glyph-0-0" x="11.7359" y="46.665"/>
<use xlink:href="#glyph-0-2" x="14.3999" y="46.665"/>
</g>
<path fill="none" stroke-width="0.125" stroke-linecap="butt" stroke-linejoin="miter" stroke="rgb(0%, 0%, 0%)" stroke-opacity="1" stroke-dasharray="0.5 1" stroke-miterlimit="10" d="M 23.199219 41 L 274.398438 41 " transform="matrix(1, 0, 0, -1, 0, 75)"/>
<path fill="none" stroke-width="0.5" stroke-linecap="butt" stroke-linejoin="miter" stroke="rgb(0%, 0%, 0%)" stroke-opacity="1" stroke-miterlimit="10" d="M 23.199219 41 L 26.351562 41 M 274.398438 41 L 271.25 41 " transform="matrix(1, 0, 0, -1, 0, 75)"/>
<g fill="rgb(0%, 0%, 0%)" fill-opacity="1">
<use xlink:href="#glyph-0-3" x="12.4" y="36.665"/>
<use xlink:href="#glyph-0-4" x="14.4" y="36.665"/>
</g>
<path fill="none" stroke-width="0.125" stroke-linecap="butt" stroke-linejoin="miter" stroke="rgb(0%, 0%, 0%)" stroke-opacity="1" stroke-dasharray="0.5 1" stroke-miterlimit="10" d="M 23.199219 51 L 274.398438 51 " transform="matrix(1, 0, 0, -1, 0, 75)"/>
<path fill="none" stroke-width="0.5" stroke-linecap="butt" stroke-linejoin="miter" stroke="rgb(0%, 0%, 0%)" stroke-opacity="1" stroke-miterlimit="10" d="M 23.199219 51 L 26.351562 51 M 274.398438 51 L 271.25 51 " transform="matrix(1, 0, 0, -1, 0, 75)"/>
<g fill="rgb(0%, 0%, 0%)" fill-opacity="1">
<use xlink:href="#glyph-0-3" x="12.4" y="26.665"/>
<use xlink:href="#glyph-0-2" x="14.4" y="26.665"/>
</g>
<path fill="none" stroke-width="0.125" stroke-linecap="butt" stroke-linejoin="miter" stroke="rgb(0%, 0%, 0%)" stroke-opacity="1" stroke-dasharray="0.5 1" stroke-miterlimit="10" d="M 23.199219 61 L 274.398438 61 " transform="matrix(1, 0, 0, -1, 0, 75)"/>
<path fill="none" stroke-width="0.5" stroke-linecap="butt" stroke-linejoin="miter" stroke="rgb(0%, 0%, 0%)" stroke-opacity="1" stroke-miterlimit="10" d="M 23.199219 61 L 26.351562 61 M 274.398438 61 L 271.25 61 " transform="matrix(1, 0, 0, -1, 0, 75)"/>
<g fill="rgb(0%, 0%, 0%)" fill-opacity="1">
<use xlink:href="#glyph-0-3" x="12.4" y="16.665"/>
<use xlink:href="#glyph-0-1" x="14.4" y="16.665"/>
</g>
<path fill="none" stroke-width="0.125" stroke-linecap="butt" stroke-linejoin="miter" stroke="rgb(0%, 0%, 0%)" stroke-opacity="1" stroke-dasharray="0.5 1" stroke-miterlimit="10" d="M 23.199219 16 L 23.199219 66 " transform="matrix(1, 0, 0, -1, 0, 75)"/>
<path fill="none" stroke-width="0.5" stroke-linecap="butt" stroke-linejoin="miter" stroke="rgb(0%, 0%, 0%)" stroke-opacity="1" stroke-miterlimit="10" d="M 23.199219 16 L 23.199219 19.148438 M 23.199219 66 L 23.199219 62.851562 " transform="matrix(1, 0, 0, -1, 0, 75)"/>
<g fill="rgb(0%, 0%, 0%)" fill-opacity="1">
<use xlink:href="#glyph-0-3" x="20.2" y="69.665"/>
<use xlink:href="#glyph-0-4" x="22.2" y="69.665"/>
</g>
<path fill="none" stroke-width="0.125" stroke-linecap="butt" stroke-linejoin="miter" stroke="rgb(0%, 0%, 0%)" stroke-opacity="1" stroke-dasharray="0.5 1" stroke-miterlimit="10" d="M 73.449219 16 L 73.449219 66 " transform="matrix(1, 0, 0, -1, 0, 75)"/>
<path fill="none" stroke-width="0.5" stroke-linecap="butt" stroke-linejoin="miter" stroke="rgb(0%, 0%, 0%)" stroke-opacity="1" stroke-miterlimit="10" d="M 73.449219 16 L 73.449219 19.148438 M 73.449219 66 L 73.449219 62.851562 " transform="matrix(1, 0, 0, -1, 0, 75)"/>
<g fill="rgb(0%, 0%, 0%)" fill-opacity="1">
<use xlink:href="#glyph-0-3" x="66.45" y="69.665"/>
<use xlink:href="#glyph-0-1" x="68.45" y="69.665"/>
<use xlink:href="#glyph-0-4" x="72.45" y="69.665"/>
<use xlink:href="#glyph-0-4" x="76.45" y="69.665"/>
</g>
<path fill="none" stroke-width="0.125" stroke-linecap="butt" stroke-linejoin="miter" stroke="rgb(0%, 0%, 0%)" stroke-opacity="1" stroke-dasharray="0.5 1" stroke-miterlimit="10" d="M 123.699219 16 L 123.699219 66 " transform="matrix(1, 0, 0, -1, 0, 75)"/>
<path fill="none" stroke-width="0.5" stroke-linecap="butt" stroke-linejoin="miter" stroke="rgb(0%, 0%, 0%)" stroke-opacity="1" stroke-miterlimit="10" d="M 123.699219 16 L 123.699219 19.148438 M 123.699219 66 L 123.699219 62.851562 " transform="matrix(1, 0, 0, -1, 0, 75)"/>
<g fill="rgb(0%, 0%, 0%)" fill-opacity="1">
<use xlink:href="#glyph-0-3" x="116.7" y="69.665"/>
<use xlink:href="#glyph-0-5" x="118.7" y="69.665"/>
<use xlink:href="#glyph-0-4" x="122.7" y="69.665"/>
<use xlink:href="#glyph-0-4" x="126.7" y="69.665"/>
</g>
<path fill="none" stroke-width="0.125" stroke-linecap="butt" stroke-linejoin="miter" stroke="rgb(0%, 0%, 0%)" stroke-opacity="1" stroke-dasharray="0.5 1" stroke-miterlimit="10" d="M 173.898438 16 L 173.898438 66 " transform="matrix(1, 0, 0, -1, 0, 75)"/>
<path fill="none" stroke-width="0.5" stroke-linecap="butt" stroke-linejoin="miter" stroke="rgb(0%, 0%, 0%)" stroke-opacity="1" stroke-miterlimit="10" d="M 173.898438 16 L 173.898438 19.148438 M 173.898438 66 L 173.898438 62.851562 " transform="matrix(1, 0, 0, -1, 0, 75)"/>
<g fill="rgb(0%, 0%, 0%)" fill-opacity="1">
<use xlink:href="#glyph-0-3" x="166.9" y="69.665"/>
<use xlink:href="#glyph-0-6" x="168.9" y="69.665"/>
<use xlink:href="#glyph-0-4" x="172.9" y="69.665"/>
<use xlink:href="#glyph-0-4" x="176.9" y="69.665"/>
</g>
<path fill="none" stroke-width="0.125" stroke-linecap="butt" stroke-linejoin="miter" stroke="rgb(0%, 0%, 0%)" stroke-opacity="1" stroke-dasharray="0.5 1" stroke-miterlimit="10" d="M 224.148438 16 L 224.148438 66 " transform="matrix(1, 0, 0, -1, 0, 75)"/>
<path fill="none" stroke-width="0.5" stroke-linecap="butt" stroke-linejoin="miter" stroke="rgb(0%, 0%, 0%)" stroke-opacity="1" stroke-miterlimit="10" d="M 224.148438 16 L 224.148438 19.148438 M 224.148438 66 L 224.148438 62.851562 " transform="matrix(1, 0, 0, -1, 0, 75)"/>
<g fill="rgb(0%, 0%, 0%)" fill-opacity="1">
<use xlink:href="#glyph-0-3" x="217.15" y="69.665"/>
<use xlink:href="#glyph-0-7" x="219.15" y="69.665"/>
<use xlink:href="#glyph-0-4" x="223.15" y="69.665"/>
<use xlink:href="#glyph-0-4" x="227.15" y="69.665"/>
</g>
<path fill="none" stroke-width="0.125" stroke-linecap="butt" stroke-linejoin="miter" stroke="rgb(0%, 0%, 0%)" stroke-opacity="1" stroke-dasharray="0.5 1" stroke-miterlimit="10" d="M 274.398438 16 L 274.398438 66 " transform="matrix(1, 0, 0, -1, 0, 75)"/>
<path fill="none" stroke-width="0.5" stroke-linecap="butt" stroke-linejoin="miter" stroke="rgb(0%, 0%, 0%)" stroke-opacity="1" stroke-miterlimit="10" d="M 274.398438 16 L 274.398438 19.148438 M 274.398438 66 L 274.398438 62.851562 " transform="matrix(1, 0, 0, -1, 0, 75)"/>
<g fill="rgb(0%, 0%, 0%)" fill-opacity="1">
<use xlink:href="#glyph-0-3" x="265.4" y="69.665"/>
<use xlink:href="#glyph-0-2" x="267.4" y="69.665"/>
<use xlink:href="#glyph-0-4" x="271.4" y="69.665"/>
<use xlink:href="#glyph-0-4" x="275.4" y="69.665"/>
<use xlink:href="#glyph-0-4" x="279.4" y="69.665"/>
</g>
<path fill="none" stroke-width="0.5" stroke-linecap="butt" stroke-linejoin="miter" stroke="rgb(0%, 0%, 0%)" stroke-opacity="1" stroke-miterlimit="10" d="M 23.199219 16 L 274.398438 16 L 274.398438 66 L 23.199219 66 Z M 23.199219 16 " transform="matrix(1, 0, 0, -1, 0, 75)"/>
<path fill="none" stroke-width="0.25" stroke-linecap="butt" stroke-linejoin="miter" stroke="rgb(100%, 0%, 0%)" stroke-opacity="1" stroke-miterlimit="10" d="M 23.199219 47.300781 L 23.449219 47.300781 L 23.699219 39.851562 L 23.949219 48.101562 L 24.199219 50.75 L 24.449219 42.699219 L 24.699219 38.25 L 24.949219 39.199219 L 25.949219 39.199219 L 26.199219 48.351562 L 26.449219 48.050781 L 26.699219 54.050781 L 26.949219 46.898438 L 27.199219 45.351562 L 28.199219 45.351562 L 28.5 36.050781 L 28.75 43.050781 L 29 43.050781 L 29.25 46.601562 L 29.75 46.601562 L 30 44.449219 L 30.25 47.550781 L 30.5 41 L 30.75 45.101562 L 31 35.75 L 31.25 35.75 L 31.5 26.648438 L 31.75 26.648438 L 32 33.148438 L 32.25 37.050781 L 32.5 37.050781 L 32.75 46.050781 L 33 36.75 L 33.25 35.5 L 33.5 33.148438 L 33.75 38.449219 L 34 44.351562 L 34.25 38.101562 L 34.5 37.898438 L 34.75 36.800781 L 35 39.699219 L 35.25 43.898438 L 35.5 43.898438 L 35.75 39.449219 L 36 43 L 36.25 46.101562 L 36.5 39.351562 L 37 39.351562 L 37.25 48.550781 L 37.5 45.351562 L 37.75 47.050781 L 38 41.5 L 38.25 41.5 L 38.5 36.648438 L 38.75 36.75 L 39.050781 40.75 L 39.300781 48.550781 L 39.550781 48.550781 L 39.800781 49.5 L 40.050781 42.25 L 40.300781 35.25 L 40.550781 35.25 L 40.800781 42.050781 L 41.050781 37.148438 L 41.300781 43.449219 L 41.550781 38.300781 L 41.800781 46.898438 L 42.050781 43.898438 L 42.300781 37.800781 L 42.550781 37.800781 L 42.800781 40.148438 L 43.050781 39.601562 L 43.300781 36.648438 L 43.550781 43.25 L 43.800781 44.949219 L 44.050781 45.949219 L 44.300781 45.949219 L 44.550781 41.648438 L 44.800781 46.800781 L 45.050781 46.800781 L 45.300781 44.449219 L 45.550781 45.800781 L 45.800781 37.300781 L 46.050781 37.300781 L 46.300781 37.898438 L 46.550781 43.5 L 46.800781 43.5 L 47.050781 36.101562 L 47.300781 37.449219 L 47.550781 36.851562 L 47.800781 36.851562 L 48.050781 33.601562 L 48.300781 33.601562 L 48.550781 39.5 L 48.800781 39.5 L 49.050781 40.050781 L 49.300781 33.351562 L 49.601562 35.398438 L 49.851562 30.648438 L 50.101562 33.75 L 50.351562 37.550781 L 50.601562 42.5 L 50.851562 41.5 L 51.101562 41.5 L 51.351562 36.101562 L 51.601562 44.351562 L 51.851562 37.398438 L 52.101562 43.898438 L 52.351562 44.699219 L 52.601562 44.699219 L 52.851562 36.25 L 53.101562 35.101562 L 53.351562 35.101562 L 53.601562 44.351562 L 53.851562 34.449219 L 54.101562 39.949219 L 54.351562 46.300781 L 54.601562 46.300781 L 54.851562 37.949219 L 55.101562 37.949219 L 55.351562 33.148438 L 55.601562 39.148438 L 55.851562 37.800781 L 56.101562 46 L 56.351562 39.648438 L 56.601562 34.898438 L 57.101562 34.898438 L 57.351562 42.300781 L 57.601562 43.898438 L 57.851562 44.898438 L 58.101562 37.800781 L 58.351562 44.851562 L 58.601562 47.300781 L 58.851562 44.300781 L 59.101562 44.601562 L 59.351562 42.601562 L 59.601562 42.601562 L 59.898438 37.398438 L 60.148438 29.898438 L 61.148438 29.898438 L 61.398438 37.949219 L 61.648438 46.851562 L 62.148438 46.449219 L 62.398438 43.199219 L 62.648438 51.199219 L 62.898438 48.601562 L 63.148438 40.800781 L 63.398438 40.800781 L 63.648438 38.601562 L 63.898438 33.449219 L 64.148438 31.5 L 64.648438 31.5 L 64.898438 40.351562 L 65.148438 40.351562 L 65.398438 41.851562 L 65.648438 33.050781 L 65.898438 33.050781 L 66.148438 30.101562 L 66.398438 36.550781 L 67.148438 36.550781 L 67.398438 39.5 L 67.648438 44.148438 L 67.898438 47.101562 L 68.148438 46.148438 L 68.398438 47.050781 L 68.648438 43 L 68.898438 47.898438 L 69.148438 41.648438 L 69.398438 45.398438 L 69.648438 39.050781 L 69.898438 36.449219 L 70.148438 38.949219 L 70.449219 44.550781 L 70.699219 36.199219 L 70.949219 44.75 L 71.199219 50.300781 L 71.449219 50 L 71.699219 48.75 L 71.949219 47.648438 L 72.199219 43.800781 L 72.449219 43.949219 L 72.699219 44.199219 L 72.949219 50.550781 L 73.449219 50.550781 L 73.699219 48.101562 L 73.949219 54.351562 L 74.199219 54.351562 L 74.449219 51.351562 L 74.699219 51.351562 L 74.949219 58.898438 L 75.199219 59.898438 L 75.449219 59.898438 L 75.699219 61.601562 L 75.949219 55.75 L 76.199219 51.800781 L 76.449219 51.199219 L 76.699219 45.851562 L 76.949219 45.851562 L 77.199219 39.699219 L 77.449219 34.25 L 77.699219 27.648438 L 77.949219 27.648438 L 78.199219 26.351562 L 78.449219 22.601562 L 78.699219 31.050781 L 78.949219 29.648438 L 79.199219 29.648438 L 79.449219 37.75 L 79.699219 47.351562 L 79.949219 46.148438 L 80.199219 38.351562 L 80.449219 33.5 L 80.699219 31.699219 L 81 33.601562 L 81.25 28.851562 L 81.5 30.898438 L 81.75 35.101562 L 82.5 35.101562 L 82.75 31.5 L 83 31.5 L 83.25 31.648438 L 83.5 31.648438 L 83.75 26.898438 L 84 32.898438 L 84.25 32.898438 L 84.5 41.5 L 84.75 46.101562 L 85 45.851562 L 85.25 47.449219 L 85.5 42.199219 L 85.75 41.351562 L 86 41.351562 L 86.25 42.300781 L 86.5 42.75 L 86.75 37.351562 L 87 37.148438 L 87.25 39.601562 L 87.5 43.199219 L 87.75 41.101562 L 88 38.449219 L 88.75 38.449219 L 89 46.699219 L 89.25 46.699219 L 89.5 38.699219 L 89.75 33.949219 L 90 30.648438 L 90.25 34.25 L 90.5 34.25 L 90.75 38.648438 L 91 38.648438 L 91.300781 41.75 L 91.550781 41.601562 L 91.800781 47.199219 L 92.050781 51.5 L 92.550781 51.5 L 92.800781 48.199219 L 93.050781 52.148438 L 93.300781 46.101562 L 93.550781 36.75 L 93.800781 41.601562 L 94.050781 41.601562 L 94.300781 41.199219 L 94.550781 49.300781 L 94.800781 49.300781 L 95.050781 51.648438 L 95.550781 51.648438 L 95.800781 53.199219 L 96.050781 46.851562 L 96.300781 41.648438 L 96.800781 41.648438 L 97.050781 41.449219 L 97.300781 41.449219 L 97.550781 51 L 97.800781 51 L 98.050781 51.050781 L 98.300781 50.449219 L 98.550781 41.648438 L 98.800781 45.300781 L 99.050781 36.148438 L 99.300781 36.148438 L 99.550781 36.550781 L 99.800781 36.550781 L 100.300781 49.300781 L 100.550781 49.300781 L 100.800781 42.25 L 101.050781 45.449219 L 101.300781 45.851562 L 101.550781 55.300781 L 102.101562 55.300781 L 102.351562 54.351562 L 102.601562 53 L 102.851562 53 L 103.101562 44.699219 L 103.351562 37.351562 L 103.601562 37.351562 L 103.851562 35.148438 L 104.101562 41.800781 L 104.351562 47.851562 L 104.601562 39.101562 L 104.851562 37.050781 L 105.101562 37.601562 L 105.351562 35.949219 L 105.601562 39.050781 L 105.851562 41.648438 L 106.101562 37.449219 L 106.351562 36.101562 L 106.601562 36.101562 L 106.851562 45.800781 L 107.101562 39.148438 L 107.351562 39.148438 L 107.601562 36.601562 L 107.851562 36.601562 L 108.101562 36.351562 L 108.351562 33.148438 L 108.601562 42.199219 L 108.851562 50.601562 L 109.101562 41.648438 L 109.351562 46.398438 L 109.601562 41.800781 L 109.851562 40.25 L 110.101562 41.199219 L 110.351562 50.050781 L 110.601562 48.398438 L 110.851562 48.398438 L 111.101562 44.449219 L 111.351562 48.449219 L 111.601562 48.449219 L 111.851562 49.25 L 112.101562 49.25 L 112.398438 52.601562 L 112.648438 46.148438 L 112.898438 38.699219 L 113.398438 38.699219 L 113.648438 29.351562 L 113.898438 30.601562 L 114.148438 38.199219 L 114.398438 41.601562 L 114.648438 35.398438 L 114.898438 32.800781 L 115.148438 32 L 115.398438 41.648438 L 115.648438 34.75 L 115.898438 41.851562 L 116.148438 44.75 L 116.398438 42.300781 L 116.648438 36.101562 L 116.898438 34.699219 L 117.148438 34.300781 L 117.398438 34.300781 L 117.648438 36.101562 L 117.898438 36.101562 L 118.148438 33.800781 L 118.398438 35.449219 L 118.648438 35.449219 L 118.898438 31.25 L 119.148438 33.601562 L 119.398438 33.601562 L 119.648438 40.101562 L 119.898438 40.101562 L 120.148438 44.699219 L 120.398438 41.601562 L 120.648438 43.25 L 120.898438 35.398438 L 121.148438 43.550781 L 121.398438 51.148438 L 121.648438 51.148438 L 121.898438 46.351562 L 122.148438 48.25 L 122.398438 38.699219 L 122.699219 37.199219 L 122.949219 33.449219 L 123.449219 33.449219 L 123.699219 31.898438 L 123.949219 31.898438 L 124.199219 33.898438 L 124.449219 33.300781 L 124.699219 37.199219 L 124.949219 41.199219 L 125.199219 44 L 125.449219 34.648438 L 125.699219 34.648438 L 125.949219 31.050781 L 126.199219 31.648438 L 126.449219 34.75 L 126.699219 32.898438 L 126.949219 39.300781 L 127.199219 43.648438 L 127.449219 43.648438 L 127.699219 44.300781 L 127.949219 40.800781 L 128.199219 40.800781 L 128.449219 43 L 128.699219 48.601562 L 128.949219 47.050781 L 129.199219 38.898438 L 129.449219 34.199219 L 129.699219 34.199219 L 129.949219 29.851562 L 130.199219 28.648438 L 130.449219 29.199219 L 130.699219 28.351562 L 130.949219 35.851562 L 131.199219 36.199219 L 131.449219 45.050781 L 131.699219 47.800781 L 131.949219 47.800781 L 132.199219 42.648438 L 132.449219 46.148438 L 132.699219 41.949219 L 132.949219 45.398438 L 133.25 49.300781 L 133.5 40.648438 L 134 40.648438 L 134.25 44 L 134.5 44 L 134.75 40.898438 L 135 46.5 L 135.25 50 L 135.5 40.148438 L 135.75 42.199219 L 136 39.898438 L 136.25 39.898438 L 136.5 29.949219 L 136.75 29.199219 L 137 27.648438 L 137.25 26.898438 L 137.5 32.300781 L 137.75 28.75 L 138 34.449219 L 138.25 33.851562 L 138.75 33.851562 L 139 38.300781 L 139.25 37.75 L 139.5 37.75 L 139.75 34.601562 L 140 36.75 L 140.25 36.75 L 140.5 41.5 L 140.75 36.351562 L 141 44.699219 L 141.25 40.101562 L 141.5 45.398438 L 141.75 39.199219 L 142 34.949219 L 142.25 26.75 L 142.5 28.300781 L 142.75 31.949219 L 143 32.898438 L 143.25 32.898438 L 143.5 35.75 L 143.800781 38.699219 L 144.050781 42.300781 L 144.300781 45 L 144.550781 53.898438 L 144.800781 48.101562 L 145.050781 48.101562 L 145.300781 42.800781 L 145.550781 35.199219 L 145.800781 37.351562 L 146.050781 37.351562 L 146.300781 36.550781 L 146.550781 39.75 L 146.800781 45.148438 L 147.050781 42.199219 L 147.300781 45.398438 L 147.550781 43.75 L 147.800781 50.601562 L 148.050781 57.25 L 148.300781 52.351562 L 148.550781 54.648438 L 148.800781 54.648438 L 149.050781 55.449219 L 149.300781 55.449219 L 149.550781 50.75 L 149.800781 47.101562 L 150.050781 39.5 L 150.300781 48.300781 L 150.550781 48.300781 L 150.800781 47.898438 L 151.050781 47.898438 L 151.300781 48.75 L 151.550781 51.699219 L 151.800781 52.601562 L 152.050781 57 L 152.300781 57.449219 L 152.550781 57.449219 L 152.800781 51.851562 L 153.300781 36.148438 L 153.800781 36.148438 L 154.101562 35.101562 L 154.351562 32.449219 L 154.601562 37.699219 L 154.851562 40.25 L 155.101562 45.699219 L 155.601562 45.699219 L 155.851562 39.550781 L 156.101562 39.550781 L 156.351562 43.449219 L 156.601562 43.449219 L 156.851562 44 L 157.101562 44.601562 L 157.351562 44.601562 L 157.601562 44.300781 L 157.851562 42.148438 L 158.101562 45.601562 L 158.351562 50.398438 L 158.601562 50.800781 L 158.851562 47.75 L 159.101562 40.75 L 159.351562 42.5 L 159.601562 42.5 L 159.851562 33.351562 L 160.101562 38.449219 L 160.351562 33.300781 L 160.601562 32.148438 L 160.851562 35.949219 L 161.101562 33.101562 L 161.351562 37.851562 L 161.601562 35.75 L 161.851562 39.398438 L 162.101562 43.5 L 162.351562 42.351562 L 162.601562 32.699219 L 162.851562 32.699219 L 163.101562 31.199219 L 163.351562 26.601562 L 163.601562 20.550781 L 163.851562 27 L 164.101562 27 L 164.351562 34.75 L 164.648438 34.75 L 164.898438 40.101562 L 165.148438 38.050781 L 165.398438 44.25 L 165.648438 44.25 L 165.898438 41.800781 L 166.148438 36.101562 L 166.398438 41.898438 L 166.648438 50.898438 L 166.898438 47.449219 L 167.148438 47.449219 L 167.398438 46.199219 L 167.648438 52.898438 L 167.898438 52.898438 L 168.148438 46.25 L 168.648438 46.25 L 168.898438 46.5 L 169.148438 46.5 L 169.398438 48.300781 L 169.648438 41.398438 L 169.898438 41.398438 L 170.148438 39.5 L 170.398438 44.5 L 170.648438 51 L 170.898438 56.800781 L 171.148438 53.148438 L 171.398438 53.851562 L 171.648438 45.648438 L 171.898438 37.898438 L 172.148438 30.601562 L 172.398438 34.199219 L 172.648438 34.101562 L 172.898438 34.101562 L 173.148438 34 L 173.398438 26.949219 L 173.648438 26.949219 L 173.898438 33.949219 L 174.148438 35.148438 L 174.398438 43.75 L 174.648438 43.75 L 174.898438 45.398438 L 175.199219 51.699219 L 175.699219 51.699219 L 175.949219 41.75 L 176.199219 49.050781 L 176.699219 49.050781 L 176.949219 49.601562 L 177.199219 49.199219 L 177.449219 49.199219 L 177.699219 43.75 L 177.949219 43.699219 L 178.199219 51.699219 L 178.449219 53.199219 L 178.949219 53.199219 L 179.199219 54.949219 L 179.449219 49.851562 L 179.699219 49.851562 L 179.949219 41.550781 L 180.199219 44.050781 L 180.449219 44.050781 L 180.699219 48.648438 L 181.449219 48.648438 L 181.699219 50.300781 L 181.949219 58.851562 L 182.199219 58.851562 L 182.449219 49.199219 L 182.699219 41.601562 L 182.949219 41.601562 L 183.199219 41.300781 L 183.449219 48.199219 L 183.699219 42.351562 L 183.949219 43.398438 L 184.199219 43.398438 L 184.449219 34.050781 L 184.699219 36.351562 L 184.949219 33.601562 L 185.199219 33.601562 L 185.5 33.398438 L 187 33.398438 L 187.25 36.101562 L 187.5 36.101562 L 187.75 36.851562 L 188 40.75 L 188.25 40.75 L 188.5 41.449219 L 188.75 40.398438 L 189 40.398438 L 189.25 40.199219 L 189.5 47.25 L 189.75 47.25 L 190 42.648438 L 190.25 42.648438 L 190.5 43.949219 L 190.75 46.75 L 191 45.101562 L 191.25 39.199219 L 191.75 39.199219 L 192 31.351562 L 192.25 31.351562 L 192.5 24.648438 L 192.75 27.101562 L 193 28.550781 L 193.25 28.550781 L 193.5 37.199219 L 193.75 41.75 L 194 46.5 L 194.25 37.75 L 194.5 45 L 194.75 53.648438 L 195.5 53.648438 L 195.75 53.949219 L 196.050781 47.5 L 196.300781 45.449219 L 196.550781 38.148438 L 196.800781 28.75 L 197.050781 37.550781 L 197.300781 33.550781 L 197.550781 33.550781 L 197.800781 30.25 L 198.050781 30.25 L 198.300781 33.199219 L 198.550781 33.199219 L 198.800781 40.050781 L 199.050781 41.199219 L 199.300781 41.199219 L 199.550781 38.148438 L 199.800781 37.101562 L 200.300781 37.101562 L 200.550781 40.351562 L 200.800781 36.949219 L 201.050781 44.949219 L 201.300781 37.300781 L 201.550781 47.050781 L 201.800781 47.851562 L 202.300781 47.851562 L 202.550781 43.601562 L 202.800781 41.898438 L 203.050781 41.199219 L 203.300781 46.5 L 203.550781 52.851562 L 203.800781 44.851562 L 204.050781 38.398438 L 204.550781 38.398438 L 204.800781 38.851562 L 205.050781 35.601562 L 205.300781 29.101562 L 205.550781 29.101562 L 205.800781 37.199219 L 206.050781 40.699219 L 206.300781 40.050781 L 206.601562 48.300781 L 206.851562 40.398438 L 207.101562 45.300781 L 207.351562 50.050781 L 207.601562 50.050781 L 207.851562 43.699219 L 208.101562 45.648438 L 208.351562 41.648438 L 208.601562 34.351562 L 208.851562 34.351562 L 209.101562 42.25 L 209.351562 33.648438 L 209.601562 28.5 L 210.351562 28.5 L 210.601562 36.449219 L 211.351562 36.449219 L 211.601562 35.601562 L 211.851562 27.601562 L 212.101562 37.5 L 212.351562 34.148438 L 212.601562 30.101562 L 212.851562 30.101562 L 213.101562 26.050781 L 213.351562 26.050781 L 213.601562 26.199219 L 213.851562 31.398438 L 214.101562 34.050781 L 214.351562 25.851562 L 214.601562 25.851562 L 214.851562 31.398438 L 215.101562 39.5 L 215.351562 40.148438 L 215.601562 32.351562 L 215.851562 38.851562 L 216.101562 35.601562 L 216.351562 31.5 L 216.601562 36.398438 L 217.148438 36.398438 L 217.398438 39.800781 L 217.648438 41.851562 L 217.898438 42.351562 L 218.148438 46.949219 L 218.648438 46.949219 L 218.898438 42.699219 L 219.148438 42.699219 L 219.398438 43.851562 L 219.648438 41.800781 L 219.898438 33 L 220.148438 38.601562 L 220.398438 35.398438 L 220.648438 37.550781 L 220.898438 42.351562 L 221.148438 34.449219 L 221.398438 34.449219 L 221.648438 35.449219 L 221.898438 35.148438 L 222.148438 42.949219 L 222.398438 48.949219 L 222.648438 48.949219 L 222.898438 39.949219 L 223.148438 31.398438 L 223.398438 31.398438 L 223.648438 37.398438 L 223.898438 37.398438 L 224.148438 41.050781 L 224.398438 33.699219 L 224.648438 38.148438 L 225.148438 38.148438 L 225.398438 40.949219 L 225.648438 37.550781 L 225.898438 40.648438 L 226.148438 40.648438 L 226.398438 42.300781 L 226.898438 42.300781 L 227.148438 47 L 227.449219 47 L 227.699219 54.351562 L 227.949219 46.050781 L 228.449219 40.75 L 228.699219 44.449219 L 228.949219 46.398438 L 229.199219 52.199219 L 229.449219 49.550781 L 229.699219 43.699219 L 229.949219 35.398438 L 230.199219 40.851562 L 230.449219 40.851562 L 230.699219 38.601562 L 230.949219 39.648438 L 231.199219 34.25 L 231.449219 37.101562 L 231.699219 36.75 L 231.949219 36.75 L 232.199219 42.398438 L 232.449219 34.398438 L 232.699219 30.300781 L 232.949219 30.300781 L 233.199219 30.898438 L 233.699219 30.898438 L 233.949219 23 L 234.199219 23 L 234.449219 28.699219 L 234.699219 28.699219 L 234.949219 30.75 L 235.199219 40.050781 L 235.449219 38.699219 L 235.699219 42.601562 L 235.949219 47.75 L 236.199219 46.398438 L 236.449219 49.550781 L 236.699219 41.75 L 236.949219 50.398438 L 237.199219 44.148438 L 237.449219 39.449219 L 237.699219 39.449219 L 238 39.25 L 238.25 44.601562 L 238.5 42.5 L 238.75 38 L 239 38 L 239.25 41.449219 L 239.5 40.050781 L 239.75 39.101562 L 240 41.25 L 240.25 41.25 L 240.5 37.601562 L 240.75 43.050781 L 241 46.949219 L 241.25 39.5 L 241.5 39.5 L 241.75 31.351562 L 242 21.5 L 242.25 19.949219 L 242.5 23.050781 L 242.75 27.5 L 243 28.148438 L 243.25 28.148438 L 243.5 30.75 L 244.5 30.75 L 244.75 24.148438 L 245 24.148438 L 245.25 20.5 L 246 20.5 L 246.25 28.351562 L 246.5 32.398438 L 246.75 33.550781 L 247.5 33.550781 L 247.75 41.800781 L 248 41.800781 L 248.300781 42.949219 L 248.550781 39.25 L 248.800781 39.25 L 249.050781 41.699219 L 249.550781 41.699219 L 249.800781 36.851562 L 250.050781 34.75 L 250.300781 34.75 L 250.550781 38.449219 L 250.800781 36.5 L 251.050781 46.148438 L 251.300781 44.199219 L 251.550781 46.601562 L 251.800781 39.699219 L 252.300781 39.699219 L 252.550781 44.851562 L 252.800781 44.851562 L 253.050781 41.898438 L 253.300781 45.601562 L 253.550781 41.449219 L 253.800781 42.101562 L 254.050781 42.101562 L 254.300781 44.050781 L 254.550781 40.75 L 254.800781 36.699219 L 255.050781 35.800781 L 255.300781 34.25 L 255.550781 34.25 L 255.800781 35.398438 L 256.050781 40.25 L 256.300781 38.75 L 256.550781 37.300781 L 256.800781 37.300781 L 257.050781 27.800781 L 257.300781 27.800781 L 257.550781 24.148438 L 257.800781 27.25 L 258.050781 36.351562 L 258.300781 45.101562 L 258.550781 44.25 L 258.851562 39.050781 L 259.101562 44.351562 L 259.351562 49.5 L 259.851562 49.5 L 260.101562 41.648438 L 260.351562 45.25 L 260.601562 44.550781 L 260.851562 38.800781 L 261.101562 30.75 L 261.351562 37.199219 L 261.601562 30.699219 L 261.851562 30.699219 L 262.101562 34.050781 L 262.351562 41.898438 L 262.601562 42.25 L 262.851562 46.300781 L 263.101562 39.398438 L 263.351562 39.398438 L 263.601562 40.199219 L 263.851562 43.800781 L 264.101562 34.550781 L 264.351562 40.699219 L 264.601562 45.699219 L 264.851562 38.101562 L 265.101562 38.601562 L 265.351562 35.101562 L 265.601562 36.050781 L 265.851562 34 L 266.101562 32.300781 L 266.351562 32.300781 L 266.601562 27.398438 L 266.851562 17.851562 L 267.101562 26.300781 L 267.351562 29.398438 L 267.601562 38.050781 L 268.101562 38.050781 L 268.351562 43.898438 L 268.601562 45.449219 L 268.851562 44.25 L 269.101562 39.398438 L 269.398438 44.449219 L 269.648438 39.050781 L 269.898438 30.300781 L 270.148438 35.648438 L 270.398438 39.101562 L 270.648438 43.398438 L 270.898438 46.25 L 271.148438 44.601562 L 271.398438 42.449219 L 271.648438 48.75 L 271.898438 45.101562 L 272.148438 45.101562 L 272.398438 50.898438 L 272.648438 57.949219 L 272.898438 58.050781 L 273.398438 58.050781 L 273.648438 56.898438 L 273.898438 48.101562 L 274.398438 48.101562 " transform="matrix(1, 0, 0, -1, 0, 75)"/>
<path fill="none" stroke-width="0.5" stroke-linecap="butt" stroke-linejoin="miter" stroke="rgb(0%, 0%, 0%)" stroke-opacity="1" stroke-miterlimit="10" d="M 23.199219 16 L 274.398438 16 L 274.398438 66 L 23.199219 66 Z M 23.199219 16 " transform="matrix(1, 0, 0, -1, 0, 75)"/>
</svg>
